<svg xmlns="http://www.w3.org/2000/svg" version="1.1" xmlns:xlink="http://www.w3.org/1999/xlink" xmlns:svgjs="http://svgjs.dev/svgjs" width="128" height="128" viewBox="0 0 128 128"><g transform="matrix(0.5309278350515464,0,0,0.5309278350515464,28.824448115397082,12.06718218200978)"><svg viewBox="0 0 64 97" data-background-color="#fafafa" preserveAspectRatio="xMidYMid meet" height="194" width="128" xmlns="http://www.w3.org/2000/svg" xmlns:xlink="http://www.w3.org/1999/xlink"><g id="tight-bounds" transform="matrix(1,0,0,1,1.126490609771679,0.4076051295636063)"><svg viewBox="0 0 61.80747098681486 95.481" height="95.481" width="61.80747098681486"><g><svg viewBox="0 0 61.80747098681486 95.481" height="95.481" width="61.80747098681486"><g><svg viewBox="0 0 61.80747098681486 95.481" height="95.481" width="61.80747098681486"><g id="textblocktransform"><svg viewBox="0 0 61.80747098681486 95.481" height="95.481" width="61.80747098681486" id="textblock"><g><svg viewBox="0 0 61.80747098681486 95.481" height="95.481" width="61.80747098681486"><g><svg viewBox="0 0 61.80747098681486 95.481" height="95.481" width="61.80747098681486"><g><svg xmlns="http://www.w3.org/2000/svg" xmlns:xlink="http://www.w3.org/1999/xlink" version="1.1" x="0" y="0" viewBox="0.00011201025608410624 0 19.845291185214382 30.657268731472193" style="enable-background:new 0 0 19.846 30.655;" xml:space="preserve" id="icon-0" width="61.80747098681486" height="95.481" class="icon-icon-0" data-fill-palette-color="accent"><g fill="#b91c1c" data-fill-palette-color="accent"><path d="M19.806 0.561A0.56 0.56 0 0 0 19.306 0.215L13.357 0C12.417 0 12.153 0.104 11.627 0.757L1.248 14.614A0.57 0.57 0 0 0 1.193 15.199 0.57 0.57 0 0 0 1.693 15.506L7.277 15.525C8.452 15.531 8.888 16.341 8.244 17.325L0.09 29.793A0.563 0.563 0 0 0 0.213 30.539 0.55 0.55 0 0 0 0.96 30.478L18.844 11.673A0.56 0.56 0 0 0 18.949 11.069 0.54 0.54 0 0 0 18.447 10.736L15.561 10.727 12.789 10.717C11.631 10.704 11.335 10.006 12.136 9.155L19.695 1.155A0.57 0.57 0 0 0 19.806 0.561" fill="#b91c1c" data-fill-palette-color="accent"></path></g></svg></g></svg></g></svg></g></svg></g></svg></g></svg></g><defs></defs></svg><rect width="61.80747098681486" height="95.481" fill="none" stroke="none" visibility="hidden"></rect></g></svg></g></svg>